<svg width="677" height="966" viewBox="0 0 677 966" fill="none" xmlns="http://www.w3.org/2000/svg">
<path d="M424.218 215.928C399.168 215.828 395.168 198.318 412.838 180.988C415.678 178.848 442.678 178.308 445.398 180.368C449.828 185.888 445.128 193.708 452.858 198.168C463.298 212.678 433.808 215.578 424.218 215.928Z" fill="#F0B357"/>
<path d="M275.758 694.708C203.008 660.538 283.458 555.478 345.198 574.808C444.398 596.078 404.598 604.688 394.328 677.998C427.328 571.238 488.268 587.238 572.208 544.158C655.338 505.028 692.028 562.858 670.138 641.338C667.248 678.018 649.448 716.498 612.508 728.918C579.328 740.248 536.798 741.348 504.778 734.288C477.078 734.728 454.328 719.878 427.428 717.408C493.468 751.948 575.248 740.468 637.678 784.498C684.908 816.388 685.668 881.618 657.518 927.008C633.228 971.168 582.738 955.868 543.888 942.848C404.008 926.528 477.538 867.348 392.928 770.298C399.188 800.648 427.198 823.978 430.878 856.548C458.778 950.788 369.858 946.008 304.958 961.138C242.718 979.108 169.628 938.828 222.128 872.028C249.028 844.978 279.358 810.638 302.348 776.158C308.118 768.058 316.868 762.378 321.678 752.508C278.998 770.308 264.228 822.108 229.048 850.308C201.458 873.738 171.018 897.708 146.648 926.958C115.498 957.928 54.598 975.388 21.008 941.198C-5.87197 904.718 21.318 836.378 25.878 793.238C38.348 754.198 83.238 753.998 114.928 740.018C185.458 691.628 183.108 671.158 274.648 701.918C351.438 706.738 361.938 696.528 275.738 694.708H275.758ZM385.498 700.708C373.228 697.788 355.708 708.648 353.938 722.468C357.798 733.198 376.098 735.418 386.218 730.508C390.348 728.138 395.378 726.728 400.658 726.888C408.658 727.128 409.178 721.488 407.568 715.858C403.238 700.708 403.048 700.758 385.498 700.708ZM332.168 746.198C330.918 745.348 330.438 745.558 330.108 747.018C331.358 747.858 331.848 747.668 332.168 746.198ZM326.818 749.758C325.548 748.898 325.058 749.118 324.718 750.598C325.988 751.458 326.478 751.248 326.818 749.758Z" fill="white"/>
<path d="M162.158 497.898C144.908 501.168 141.498 479.528 157.648 474.648C164.958 471.868 171.678 466.928 179.968 472.938C195.508 485.058 176.198 500.368 162.158 497.898Z" fill="#F0B357"/>
<path d="M385.499 700.708C403.049 700.758 403.238 700.708 407.568 715.858C409.178 721.498 408.659 727.128 400.659 726.888C395.379 726.728 390.348 728.138 386.218 730.508C377.298 735.618 369.179 732.148 360.919 729.678C357.559 728.678 354.008 726.338 353.938 722.468C353.868 718.648 355.719 715.648 358.639 712.158C366.429 702.828 375.239 698.988 385.499 700.708Z" fill="#F0B357"/>
<path d="M652.789 309.918C650.389 288.998 647.668 267.508 633.148 250.248C596.299 198.548 523.358 227.278 473.378 197.688C512.548 196.898 550.408 212.518 589.848 200.358C627.988 192.098 680.778 163.048 664.718 116.618C651.048 81.2178 679.759 25.2378 638.039 5.43783C605.009 -8.95218 572.188 9.52783 538.628 11.6678C473.688 13.9878 461.949 62.6178 451.159 113.228C454.519 115.928 439.709 153.768 435.279 149.478C439.659 127.038 449.848 107.428 447.368 84.4178C447.498 6.54782 356.948 31.3178 307.298 8.43783C291.448 3.50783 275.158 -0.802175 258.348 0.617825C238.598 2.27783 218.948 4.73783 199.518 9.16783C148.898 22.1978 -9.6915 -1.20218 22.6385 89.0278C29.9085 98.8278 42.0484 102.168 53.6484 103.998C98.2985 107.988 138.718 129.558 182.908 134.518C250.828 136.858 330.398 121.718 382.428 175.898C365.898 168.958 351.798 156.668 334.458 151.148C320.218 146.148 308.328 146.118 293.428 143.738H293.398C272.108 140.338 206.818 143.358 181.278 143.358C155.738 143.358 107.948 128.218 95.1785 127.748C82.4085 127.278 77.1985 126.798 62.5385 132.008C60.9485 132.568 59.5184 133.338 58.2084 134.238C33.2184 147.718 23.7385 182.828 13.0285 213.698C-0.271545 242.268 6.58845 273.638 28.9584 295.088C38.9884 308.288 51.9085 312.068 67.4785 308.008C113.488 294.198 154.519 262.788 205.139 268.728C266.739 273.128 318.859 243.578 376.289 227.938C356.399 244.008 311.078 248.508 304.118 283.958C299.808 314.068 288.178 367.248 328.628 375.068C446.698 400.318 473.678 374.858 449.348 255.438C469.608 294.508 458.918 340.778 476.068 381.158C490.288 428.878 545.348 440.708 567.928 483.298C594.138 528.898 638.348 529.328 658.758 479.008C689.798 423.928 657.049 367.308 652.789 309.928V309.918ZM386.998 178.528C387.208 178.608 387.428 178.728 387.648 178.898L386.998 178.528ZM424.218 215.928C399.168 215.828 395.168 198.318 412.838 180.988C415.678 178.848 442.678 178.308 445.398 180.368C449.828 185.888 445.128 193.708 452.858 198.168C463.298 212.678 433.808 215.578 424.218 215.928Z" fill="white"/>
<path d="M560.598 497.388C548.378 461.728 513.748 446.288 486.728 423.848C445.498 389.318 390.518 401.338 342.368 387.768C282.048 367.608 244.488 418.318 205.648 453.968C226.648 424.738 233.768 393.108 258.828 367.418C291.748 341.788 295.138 276.458 243.648 277.708C203.278 281.528 160.238 273.778 123.258 294.178C82.1583 313.958 -22.1017 353.788 47.8483 404.628C86.2383 423.648 119.228 416.168 140.398 463.168C126.088 448.958 112.858 432.718 92.0683 428.908C60.9083 419.948 12.2783 398.698 9.41826 449.578C13.7783 476.998 -17.6817 532.728 15.1083 545.208C41.0883 553.098 61.6783 532.708 81.4183 521.008C96.7283 511.888 114.108 507.828 131.028 502.588C76.7382 533.328 5.53824 570.608 7.20824 642.978C7.90824 665.578 10.3883 688.118 9.22826 710.768C3.50826 755.298 32.5383 762.278 64.8883 740.908C86.5983 730.178 116.428 727.788 131.728 707.858C161.138 662.188 130.528 608.298 143.588 558.838C165.498 493.418 160.708 510.508 152.178 555.198C151.628 558.068 151.068 561.058 150.488 564.148L150.428 569.378C145.988 607.728 157.788 697.928 214.588 674.668C238.948 661.248 237.118 629.428 253.208 609.268C284.658 574.068 262.288 536.068 224.978 517.388C214.598 511.788 201.868 509.898 192.838 497.978C224.648 507.568 247.668 529.198 274.578 542.368C292.158 551.628 311.528 555.528 330.758 558.308C370.178 561.628 405.788 591.228 445.688 578.308C485.398 558.438 572.578 561.578 560.598 497.388ZM162.158 497.898C144.908 501.168 141.498 479.528 157.648 474.648C164.958 471.868 171.678 466.928 179.968 472.938C195.508 485.058 176.198 500.368 162.158 497.898Z" fill="white"/>
</svg>
