<svg width="302" height="189" viewBox="0 0 302 189" fill="none" xmlns="http://www.w3.org/2000/svg">
<path d="M217.35 12.4601C248.11 -6.99986 308.22 -4.94985 300.34 56.7501C295.28 96.3701 245.94 83.6201 216.8 84.2701C203.8 84.5601 174.89 61.8301 172.85 82.3101C217.01 101.59 318.03 99.2902 279.12 173.82C267.57 198.12 212.52 178.83 199.45 170.24C174.73 153.99 184.87 115.61 154.27 89.7901C187.17 86.3801 166.27 53.7301 143.41 68.0301C130.03 75.9401 136.47 91.8101 151.25 90.1801C152.5 115.65 181.33 142.26 172.75 166.78C158.51 190.67 46.9897 206.25 82.3797 153.91C100.93 137.55 115.61 110.87 134.67 94.1401C138.12 86.4701 141.35 88.5601 135.73 84.6701C133.24 82.9501 76.8999 151.66 38.2099 162.5C-0.480114 173.34 -11.3303 117.43 14.0697 100.83C45.9097 80.0201 54.2397 61.2701 101.73 75.3401C141 86.9801 144.78 66.3401 104.79 62.0401C98.3097 61.3401 26.3197 55.5301 38.2097 38.8501C67.0597 -9.91985 176.12 -21.3098 154.65 58.6602C174.73 66.9202 170.33 42.2001 217.34 12.4601H217.35Z" fill="white"/>
<path d="M158.669 58.4151C177.393 58.4623 177.596 58.4151 182.216 74.1036C183.937 79.9407 183.376 85.7778 174.841 85.5228C169.206 85.3528 163.841 86.8168 159.433 89.2726C149.922 94.5619 141.251 90.9727 132.445 88.413C128.859 87.3741 125.07 84.9561 125.002 80.9419C124.925 76.9844 126.897 73.8769 130.019 70.2688C138.322 60.6064 147.727 56.63 158.669 58.4151Z" fill="#F0B357"/>
</svg>
