<svg width="218" height="87" viewBox="0 0 218 87" fill="none" xmlns="http://www.w3.org/2000/svg">
<path d="M15.1179 75.5181C15.1017 75.3722 15.0531 75.1292 14.9721 74.7889C14.8911 74.4325 14.7615 74.0355 14.5833 73.598C14.4212 73.1606 14.1944 72.715 13.9027 72.2613C13.6273 71.8076 13.2708 71.4026 12.8334 71.0461C12.4283 70.722 12.0313 70.4547 11.6425 70.2441C11.2698 70.0334 10.8809 69.8714 10.4759 69.758C10.087 69.6284 9.67382 69.5473 9.23634 69.5149C8.81507 69.4663 8.35329 69.442 7.85101 69.442H0.41394C0.332926 69.442 0.268115 69.4663 0.219507 69.5149C0.187101 69.5473 0.170898 69.596 0.170898 69.6608V75.2021C0.187101 76.0122 0.211405 76.8143 0.243811 77.6082C0.276216 78.386 0.308622 79.1718 0.341027 79.9657C0.35723 80.306 0.365332 80.7678 0.365332 81.3511C0.365332 81.9182 0.35723 82.5177 0.341027 83.1496C0.341027 83.7653 0.332926 84.3567 0.316723 84.9238C0.30052 85.4909 0.292419 85.9283 0.292419 86.2362C0.292419 86.301 0.308622 86.3577 0.341027 86.4063C0.389636 86.4387 0.454447 86.4549 0.535461 86.4549H8.53152C9.24444 86.4549 9.86015 86.4063 10.3786 86.3091C10.8971 86.2119 11.3427 86.0904 11.7154 85.9445C12.088 85.7987 12.404 85.6367 12.6632 85.4585C12.9225 85.264 13.1412 85.0696 13.3194 84.8752C13.7893 84.3567 14.162 83.8139 14.4374 83.2468C14.7129 82.6635 14.9154 82.1126 15.045 81.5941C15.1747 81.0756 15.2638 80.2817 15.3124 79.2123C15.3772 78.1267 15.3124 76.8953 15.1179 75.5181ZM8.33709 79.2609C8.28848 79.7308 8.19126 80.1034 8.04544 80.3789C7.91582 80.6381 7.71328 80.7678 7.43784 80.7678C7.211 80.7678 7.07327 80.6462 7.02466 80.4032C6.99226 80.1602 6.97606 79.8766 6.97606 79.5526V76.2229C6.97606 75.7854 7.00846 75.5019 7.07327 75.3722C7.15429 75.2426 7.27581 75.1778 7.43784 75.1778C7.59986 75.1778 7.76999 75.275 7.94822 75.4695C8.12645 75.6477 8.24797 76.0528 8.31278 76.6847C8.34519 76.8467 8.36139 77.0492 8.36139 77.2923C8.3776 77.5191 8.3857 77.754 8.3857 77.9971C8.3857 78.2401 8.3776 78.4751 8.36139 78.7019C8.36139 78.9287 8.35329 79.1151 8.33709 79.2609Z" fill="#222222"/>
<path d="M31.9413 86.1633C31.8927 85.9688 31.8441 85.7744 31.7955 85.58C31.7469 85.3855 31.6902 85.183 31.6254 84.9724C31.3013 83.6437 31.0097 82.3151 30.7504 80.9865C30.4912 79.6417 30.2157 78.2887 29.9241 76.9277C29.6811 75.7125 29.438 74.5054 29.195 73.3064C28.9519 72.1074 28.7656 70.8841 28.636 69.6365C28.6198 69.5879 28.5874 69.5473 28.5388 69.5149C28.5064 69.4663 28.4577 69.442 28.3929 69.442H19.0602C18.9953 69.442 18.9386 69.4663 18.89 69.5149C18.8576 69.5473 18.8333 69.596 18.8171 69.6608C18.8009 69.8552 18.7847 70.0496 18.7685 70.2441C18.7523 70.4385 18.728 70.6248 18.6956 70.8031C18.5174 72.1803 18.2743 73.517 17.9665 74.8132C17.6586 76.0933 17.3994 77.4138 17.1887 78.7748C16.9943 80.0224 16.808 81.27 16.6297 82.5177C16.4515 83.7491 16.2247 84.9724 15.9492 86.1876C15.933 86.2686 15.9411 86.3334 15.9735 86.382C16.0221 86.4306 16.0869 86.4549 16.168 86.4549H22.2683C22.3331 86.4549 22.3817 86.4387 22.4141 86.4063C22.4627 86.3577 22.487 86.301 22.487 86.2362C22.5032 85.8149 22.5275 85.4017 22.5599 84.9967C22.5924 84.5916 22.6248 84.1784 22.6572 83.7572C22.7058 83.1901 22.7706 82.7769 22.8516 82.5177C22.9326 82.2584 23.1351 82.1369 23.4592 82.1531C23.686 82.1531 23.8481 82.2017 23.9453 82.2989C24.0587 82.3799 24.1397 82.4934 24.1883 82.6392C24.2369 82.7688 24.2693 82.9227 24.2855 83.101C24.3017 83.263 24.326 83.425 24.3585 83.587C24.4071 83.7815 24.4476 84.0002 24.48 84.2432C24.5124 84.4863 24.5367 84.7374 24.5529 84.9967C24.5853 85.2397 24.6096 85.4747 24.6258 85.7015C24.642 85.9283 24.6582 86.1066 24.6744 86.2362C24.6744 86.301 24.6906 86.3577 24.723 86.4063C24.7716 86.4387 24.8283 86.4549 24.8931 86.4549H31.7469C31.8279 86.4549 31.8846 86.4306 31.917 86.382C31.9656 86.3172 31.9737 86.2443 31.9413 86.1633ZM23.1189 76.4902C23.1513 76.2472 23.1757 76.0122 23.1919 75.7854C23.2081 75.5586 23.2324 75.356 23.2648 75.1778C23.3134 74.9996 23.362 74.8618 23.4106 74.7646C23.4754 74.6512 23.5645 74.5945 23.6779 74.5945C23.8238 74.5945 23.9372 74.6674 24.0182 74.8132C24.0992 74.9429 24.1559 75.1049 24.1883 75.2993C24.2369 75.4938 24.2612 75.7044 24.2612 75.9312C24.2774 76.1419 24.2936 76.3363 24.3098 76.5145C24.326 76.6766 24.3341 76.8791 24.3341 77.1221C24.3504 77.3652 24.3422 77.6001 24.3098 77.827C24.2774 78.0376 24.2045 78.2239 24.0911 78.3859C23.9939 78.5318 23.8319 78.6047 23.605 78.6047C23.3296 78.5885 23.1594 78.4184 23.0946 78.0943C23.0298 77.754 23.0379 77.2194 23.1189 76.4902Z" fill="#222222"/>
<path d="M39.4627 69.442C39.4141 69.442 39.3655 69.4663 39.3169 69.5149C39.2845 69.5473 39.2602 69.5879 39.244 69.6365C39.2278 69.8309 39.1954 70.1306 39.1468 70.5357C39.0982 70.9246 39.0414 71.3377 38.9766 71.7752C38.928 72.2127 38.8713 72.634 38.8065 73.039C38.7417 73.4441 38.685 73.7601 38.6364 73.9869C38.604 74.1003 38.5554 74.1894 38.4905 74.2542C38.4257 74.3191 38.3528 74.3515 38.2718 74.3515C38.1908 74.3515 38.1179 74.3191 38.0531 74.2542C37.9883 74.1894 37.9397 74.1003 37.9072 73.9869C37.8586 73.6953 37.81 73.3388 37.7614 72.9175C37.729 72.4962 37.6966 72.075 37.6642 71.6537C37.6318 71.2162 37.5994 70.8193 37.567 70.4628C37.5508 70.1063 37.5346 69.839 37.5184 69.6608C37.5022 69.596 37.4698 69.5473 37.4212 69.5149C37.3888 69.4663 37.3483 69.442 37.2996 69.442H31.1264C31.0454 69.442 30.9806 69.4744 30.932 69.5392C30.8996 69.5879 30.8915 69.6446 30.9077 69.7094C30.9725 69.9524 31.0616 70.3332 31.175 70.8517C31.3046 71.354 31.4504 71.921 31.6125 72.553C31.7907 73.1687 31.9689 73.8087 32.1472 74.473C32.3416 75.1373 32.536 75.7449 32.7305 76.2958C32.8601 76.6685 32.9897 77.033 33.1193 77.3895C33.2652 77.7459 33.3948 78.07 33.5082 78.3616C33.6216 78.6533 33.7188 78.9044 33.7999 79.1151C33.8971 79.3095 33.9538 79.431 33.97 79.4796C34.0672 79.6579 34.1563 79.9252 34.2373 80.2817C34.3345 80.6219 34.3507 81.0999 34.2859 81.7156C34.2697 81.8452 34.2535 82.1126 34.2373 82.5177C34.2373 82.9227 34.2292 83.3683 34.213 83.8544C34.213 84.3243 34.213 84.786 34.213 85.2397C34.213 85.6772 34.213 86.0094 34.213 86.2362C34.213 86.301 34.2292 86.3577 34.2616 86.4063C34.3102 86.4387 34.3669 86.4549 34.4318 86.4549H41.8931C41.9579 86.4549 42.0065 86.4387 42.039 86.4063C42.0876 86.3577 42.1119 86.301 42.1119 86.2362C42.1119 86.1066 42.1119 85.9364 42.1119 85.7258C42.1119 85.499 42.1119 85.2721 42.1119 85.0453C42.1119 84.8022 42.1119 84.5673 42.1119 84.3405C42.1119 84.0974 42.12 83.8868 42.1362 83.7086C42.1362 83.5303 42.1362 83.3602 42.1362 83.1982C42.1362 83.0199 42.1362 82.8498 42.1362 82.6878C42.1362 82.5096 42.1362 82.3313 42.1362 82.1531C42.1362 81.9749 42.1362 81.8047 42.1362 81.6427C42.1362 81.3511 42.1362 81.0999 42.1362 80.8893C42.1524 80.6786 42.1848 80.4356 42.2334 80.1602C42.2496 80.0791 42.3225 79.9009 42.4521 79.6255C42.5817 79.3338 42.7438 78.9774 42.9382 78.5561C43.1488 78.1348 43.3676 77.6649 43.5944 77.1464C43.8375 76.6117 44.0643 76.0528 44.2749 75.4695C44.4208 75.032 44.5747 74.5378 44.7367 73.9869C44.9149 73.4198 45.077 72.8608 45.2228 72.3099C45.3686 71.7428 45.4982 71.2324 45.6117 70.7788C45.7413 70.3089 45.8385 69.9524 45.9033 69.7094C45.9357 69.6446 45.9276 69.5879 45.879 69.5392C45.8304 69.4744 45.7656 69.442 45.6846 69.442H39.4627Z" fill="#222222"/>
<path d="M68.6907 79.3581C68.6907 79.2933 68.6664 79.2366 68.6178 79.188C68.5854 79.1394 68.5368 79.1151 68.472 79.1151C68.1965 79.1313 67.8806 79.1475 67.5241 79.1637C67.1677 79.1637 66.8031 79.1637 66.4304 79.1637C66.0578 79.1637 65.677 79.1637 65.2881 79.1637C64.9155 79.1637 64.559 79.1637 64.2188 79.1637C63.8947 79.1475 63.595 79.1394 63.3195 79.1394C63.0441 79.1232 62.8253 79.107 62.6633 79.0908C62.404 79.0584 62.1529 79.0341 61.9099 79.0179C61.6668 78.9855 61.4481 78.9287 61.2537 78.8477C61.0754 78.7667 60.9215 78.6452 60.7919 78.4832C60.6785 78.3049 60.6055 78.07 60.5731 77.7784C60.5407 77.5515 60.6542 77.3166 60.9134 77.0735C61.1726 76.8305 61.5615 76.709 62.08 76.709C62.161 76.709 62.3392 76.709 62.6147 76.709C62.9063 76.6928 63.2547 76.6847 63.6598 76.6847C64.0648 76.6685 64.5023 76.6604 64.9722 76.6604C65.4421 76.6442 65.9038 76.6361 66.3575 76.6361C66.8112 76.6199 67.2244 76.6117 67.597 76.6117C67.9697 76.5955 68.2613 76.5874 68.472 76.5874C68.5368 76.5874 68.5854 76.5712 68.6178 76.5388C68.6664 76.4902 68.6907 76.4335 68.6907 76.3687C68.6907 76.1095 68.6907 75.8016 68.6907 75.4452C68.6907 75.0725 68.6907 74.7079 68.6907 74.3515C68.6907 73.9788 68.6907 73.6385 68.6907 73.3307C68.7069 73.0066 68.715 72.7717 68.715 72.6259C68.7312 71.9454 68.7393 71.3702 68.7393 70.9003C68.7555 70.4142 68.7636 70.001 68.7636 69.6608C68.7636 69.596 68.7393 69.5473 68.6907 69.5149C68.6583 69.4663 68.6097 69.442 68.5449 69.442H61.1807C60.6785 69.442 60.16 69.4663 59.6253 69.5149C59.1068 69.5473 58.6045 69.6203 58.1184 69.7337C57.6323 69.8309 57.1787 69.9686 56.7574 70.1469C56.3523 70.3089 56.0121 70.5276 55.7366 70.8031C55.5746 70.9651 55.3639 71.2 55.1047 71.5079C54.8617 71.7995 54.6267 72.1803 54.3999 72.6502C54.173 73.1039 53.9786 73.6385 53.8166 74.2542C53.6546 74.87 53.5735 75.5748 53.5735 76.3687V79.6255C53.5735 80.0143 53.5816 80.3627 53.5978 80.6705C53.6303 80.9622 53.687 81.2538 53.768 81.5455C53.849 81.8371 53.9624 82.1369 54.1082 82.4447C54.2541 82.7364 54.4485 83.0686 54.6915 83.4412C54.9184 83.7977 55.21 84.1298 55.5665 84.4377C55.9229 84.7455 56.2875 85.0129 56.6602 85.2397C56.8384 85.3531 57.0652 85.4828 57.3407 85.6286C57.6161 85.7744 57.9645 85.9121 58.3858 86.0418C58.8232 86.1552 59.3498 86.2524 59.9655 86.3334C60.5812 86.4144 61.3185 86.4549 62.1772 86.4549H68.5449C68.6097 86.4549 68.6583 86.4387 68.6907 86.4063C68.7393 86.3577 68.7636 86.301 68.7636 86.2362C68.7636 86.0256 68.7636 85.7906 68.7636 85.5314C68.7636 85.2721 68.7555 85.0129 68.7393 84.7536C68.7393 84.4782 68.7312 84.2189 68.715 83.9759C68.715 83.7329 68.7069 83.5222 68.6907 83.344C68.6745 83.0361 68.6664 82.704 68.6664 82.3475C68.6664 81.9911 68.6664 81.6346 68.6664 81.2781C68.6664 80.9217 68.6664 80.5814 68.6664 80.2574C68.6826 79.9171 68.6907 79.6174 68.6907 79.3581Z" fill="#222222"/>
<path d="M85.9848 86.1633C85.9362 85.9688 85.8876 85.7744 85.839 85.58C85.7904 85.3855 85.7337 85.183 85.6689 84.9724C85.3448 83.6437 85.0532 82.3151 84.7939 80.9865C84.5347 79.6417 84.2592 78.2887 83.9676 76.9277C83.7245 75.7125 83.4815 74.5054 83.2384 73.3064C82.9954 72.1074 82.8091 70.8841 82.6795 69.6365C82.6633 69.5879 82.6308 69.5473 82.5822 69.5149C82.5498 69.4663 82.5012 69.442 82.4364 69.442H73.1036C73.0388 69.442 72.9821 69.4663 72.9335 69.5149C72.9011 69.5473 72.8768 69.596 72.8606 69.6608C72.8444 69.8552 72.8282 70.0496 72.812 70.2441C72.7958 70.4385 72.7715 70.6248 72.7391 70.8031C72.5608 72.1803 72.3178 73.517 72.0099 74.8132C71.7021 76.0933 71.4428 77.4138 71.2322 78.7748C71.0378 80.0224 70.8514 81.27 70.6732 82.5177C70.495 83.7491 70.2681 84.9724 69.9927 86.1876C69.9765 86.2686 69.9846 86.3334 70.017 86.382C70.0656 86.4306 70.1304 86.4549 70.2114 86.4549H76.3118C76.3766 86.4549 76.4252 86.4387 76.4576 86.4063C76.5062 86.3577 76.5305 86.301 76.5305 86.2362C76.5467 85.8149 76.571 85.4017 76.6034 84.9967C76.6358 84.5916 76.6682 84.1784 76.7006 83.7572C76.7492 83.1901 76.8141 82.7769 76.8951 82.5177C76.9761 82.2584 77.1786 82.1369 77.5027 82.1531C77.7295 82.1531 77.8915 82.2017 77.9888 82.2989C78.1022 82.3799 78.1832 82.4934 78.2318 82.6392C78.2804 82.7688 78.3128 82.9227 78.329 83.101C78.3452 83.263 78.3695 83.425 78.4019 83.587C78.4505 83.7815 78.491 84.0002 78.5234 84.2432C78.5559 84.4863 78.5802 84.7374 78.5964 84.9967C78.6288 85.2397 78.6531 85.4747 78.6693 85.7015C78.6855 85.9283 78.7017 86.1066 78.7179 86.2362C78.7179 86.301 78.7341 86.3577 78.7665 86.4063C78.8151 86.4387 78.8718 86.4549 78.9366 86.4549H85.7904C85.8714 86.4549 85.9281 86.4306 85.9605 86.382C86.0091 86.3172 86.0172 86.2443 85.9848 86.1633ZM77.1624 76.4902C77.1948 76.2472 77.2191 76.0122 77.2353 75.7854C77.2515 75.5586 77.2758 75.356 77.3082 75.1778C77.3569 74.9996 77.4055 74.8618 77.4541 74.7646C77.5189 74.6512 77.608 74.5945 77.7214 74.5945C77.8672 74.5945 77.9807 74.6674 78.0617 74.8132C78.1427 74.9429 78.1994 75.1049 78.2318 75.2993C78.2804 75.4938 78.3047 75.7044 78.3047 75.9312C78.3209 76.1419 78.3371 76.3363 78.3533 76.5145C78.3695 76.6766 78.3776 76.8791 78.3776 77.1221C78.3938 77.3652 78.3857 77.6001 78.3533 77.827C78.3209 78.0376 78.248 78.2239 78.1346 78.3859C78.0374 78.5318 77.8753 78.6047 77.6485 78.6047C77.3731 78.5885 77.2029 78.4184 77.1381 78.0943C77.0733 77.754 77.0814 77.2194 77.1624 76.4902Z" fill="#222222"/>
<path d="M102.371 86.2362C102.371 86.301 102.346 86.3577 102.298 86.4063C102.265 86.4387 102.217 86.4549 102.152 86.4549H87.5693C87.5045 86.4549 87.4478 86.4387 87.3992 86.4063C87.3668 86.3577 87.3506 86.2929 87.3506 86.2119C87.3668 85.8878 87.383 85.2721 87.3992 84.3648C87.4154 83.4574 87.4154 82.4042 87.3992 81.2052C87.3992 79.8928 87.3911 78.5237 87.3749 77.0978C87.3749 75.6558 87.3749 74.3434 87.3749 73.1606C87.3587 72.3342 87.3344 71.6132 87.302 70.9975C87.2858 70.3818 87.2615 69.9443 87.2291 69.6851C87.2291 69.6041 87.2453 69.5473 87.2777 69.5149C87.3263 69.4663 87.3911 69.442 87.4721 69.442H94.9092C94.974 69.442 95.0226 69.4663 95.055 69.5149C95.1036 69.5473 95.1279 69.596 95.1279 69.6608C95.1279 70.2117 95.1117 70.7869 95.0793 71.3864C95.0631 71.9697 95.0712 72.5287 95.1036 73.0633C95.1198 73.436 95.1279 73.8087 95.1279 74.1813C95.1279 74.554 95.136 74.9267 95.1522 75.2993C95.1522 75.4776 95.1522 75.7368 95.1522 76.0771C95.1522 76.4011 95.1522 76.7414 95.1522 77.0978C95.1684 77.4543 95.1765 77.7864 95.1765 78.0943C95.1927 78.3859 95.2089 78.5804 95.2251 78.6776C95.2737 79.1313 95.4196 79.4715 95.6626 79.6984C95.9056 79.909 96.173 80.0629 96.4646 80.1602C96.7725 80.2412 97.0641 80.2817 97.3396 80.2817C97.6312 80.2817 97.8419 80.2817 97.9715 80.2817C98.0849 80.2817 98.2388 80.2817 98.4333 80.2817C98.6439 80.2817 98.8708 80.2817 99.1138 80.2817C99.3568 80.2655 99.6161 80.2493 99.8915 80.2331C100.183 80.2169 100.459 80.2088 100.718 80.2088C100.993 80.1926 101.253 80.1845 101.496 80.1845C101.755 80.1683 101.974 80.1602 102.152 80.1602C102.217 80.1602 102.273 80.1845 102.322 80.2331C102.371 80.2655 102.395 80.3141 102.395 80.3789C102.379 80.7191 102.362 81.0351 102.346 81.3268C102.346 81.6184 102.338 81.8533 102.322 82.0316C102.306 82.307 102.298 82.5906 102.298 82.8822C102.298 83.1739 102.306 83.4574 102.322 83.7329C102.322 83.8301 102.322 83.984 102.322 84.1946C102.338 84.4053 102.346 84.6402 102.346 84.8995C102.346 85.1425 102.346 85.3936 102.346 85.6529C102.362 85.8959 102.371 86.0904 102.371 86.2362Z" fill="#222222"/>
<path d="M118.96 79.3581C118.96 79.2933 118.936 79.2366 118.887 79.188C118.855 79.1394 118.806 79.1151 118.742 79.1151C118.466 79.1313 118.15 79.1475 117.794 79.1637C117.437 79.1637 117.073 79.1637 116.7 79.1637C116.327 79.1637 115.947 79.1637 115.558 79.1637C115.185 79.1637 114.829 79.1637 114.488 79.1637C114.164 79.1475 113.865 79.1394 113.589 79.1394C113.314 79.1232 113.095 79.107 112.933 79.0908C112.674 79.0584 112.423 79.0341 112.18 79.0179C111.937 78.9855 111.718 78.9287 111.523 78.8477C111.345 78.7667 111.191 78.6452 111.062 78.4832C110.948 78.3049 110.875 78.07 110.843 77.7784C110.81 77.5515 110.924 77.3166 111.183 77.0735C111.442 76.8305 111.831 76.709 112.35 76.709C112.431 76.709 112.609 76.709 112.884 76.709C113.176 76.6928 113.524 76.6847 113.929 76.6847C114.335 76.6685 114.772 76.6604 115.242 76.6604C115.712 76.6442 116.174 76.6361 116.627 76.6361C117.081 76.6199 117.494 76.6117 117.867 76.6117C118.239 76.5955 118.531 76.5874 118.742 76.5874C118.806 76.5874 118.855 76.5712 118.887 76.5388C118.936 76.4902 118.96 76.4335 118.96 76.3687C118.96 76.1095 118.96 75.8016 118.96 75.4452C118.96 75.0725 118.96 74.7079 118.96 74.3515C118.96 73.9788 118.96 73.6385 118.96 73.3307C118.977 73.0066 118.985 72.7717 118.985 72.6259C119.001 71.9454 119.009 71.3702 119.009 70.9003C119.025 70.4142 119.033 70.001 119.033 69.6608C119.033 69.596 119.009 69.5473 118.96 69.5149C118.928 69.4663 118.879 69.442 118.815 69.442H111.45C110.948 69.442 110.43 69.4663 109.895 69.5149C109.376 69.5473 108.874 69.6203 108.388 69.7337C107.902 69.8309 107.448 69.9686 107.027 70.1469C106.622 70.3089 106.282 70.5276 106.006 70.8031C105.844 70.9651 105.634 71.2 105.374 71.5079C105.131 71.7995 104.896 72.1803 104.67 72.6502C104.443 73.1039 104.248 73.6385 104.086 74.2542C103.924 74.87 103.843 75.5748 103.843 76.3687V79.6255C103.843 80.0143 103.851 80.3627 103.868 80.6705C103.9 80.9622 103.957 81.2538 104.038 81.5455C104.119 81.8371 104.232 82.1369 104.378 82.4447C104.524 82.7364 104.718 83.0686 104.961 83.4412C105.188 83.7977 105.48 84.1298 105.836 84.4377C106.193 84.7455 106.557 85.0129 106.93 85.2397C107.108 85.3531 107.335 85.4828 107.61 85.6286C107.886 85.7744 108.234 85.9121 108.655 86.0418C109.093 86.1552 109.62 86.2524 110.235 86.3334C110.851 86.4144 111.588 86.4549 112.447 86.4549H118.815C118.879 86.4549 118.928 86.4387 118.96 86.4063C119.009 86.3577 119.033 86.301 119.033 86.2362C119.033 86.0256 119.033 85.7906 119.033 85.5314C119.033 85.2721 119.025 85.0129 119.009 84.7536C119.009 84.4782 119.001 84.2189 118.985 83.9759C118.985 83.7329 118.977 83.5222 118.96 83.344C118.944 83.0361 118.936 82.704 118.936 82.3475C118.936 81.9911 118.936 81.6346 118.936 81.2781C118.936 80.9217 118.936 80.5814 118.936 80.2574C118.952 79.9171 118.96 79.6174 118.96 79.3581Z" fill="#222222"/>
<path d="M134.553 84.6564C134.829 84.3 135.039 83.9273 135.185 83.5384C135.331 83.1334 135.444 82.7283 135.525 82.3232C135.606 81.9019 135.655 81.4888 135.671 81.0837C135.687 80.6624 135.696 80.2736 135.696 79.9171V69.6608C135.696 69.596 135.671 69.5473 135.623 69.5149C135.59 69.4663 135.542 69.442 135.477 69.442H129.036C128.971 69.442 128.915 69.4663 128.866 69.5149C128.834 69.5473 128.817 69.596 128.817 69.6608C128.817 69.7904 128.817 69.9524 128.817 70.1469C128.817 70.3413 128.817 70.5519 128.817 70.7788C128.817 70.9894 128.817 71.2 128.817 71.4107C128.817 71.6213 128.817 71.7995 128.817 71.9454C128.817 72.237 128.817 72.6583 128.817 73.2092C128.817 73.7601 128.817 74.3272 128.817 74.9105C128.817 75.4938 128.809 76.0365 128.793 76.5388C128.793 77.0411 128.793 77.3895 128.793 77.5839C128.793 77.7621 128.793 77.9728 128.793 78.2158C128.793 78.4589 128.769 78.6938 128.72 78.9206C128.672 79.1313 128.583 79.3095 128.453 79.4553C128.323 79.6012 128.137 79.6741 127.894 79.6741C127.699 79.6741 127.546 79.6093 127.432 79.4796C127.335 79.35 127.262 79.1961 127.213 79.0179C127.165 78.8234 127.132 78.6209 127.116 78.4103C127.1 78.1996 127.092 77.9971 127.092 77.8027C127.092 77.4948 127.092 77.0978 127.092 76.6117C127.092 76.1257 127.092 75.6315 127.092 75.1292C127.092 74.6107 127.092 74.1246 127.092 73.671C127.092 73.2173 127.092 72.8608 127.092 72.6016C127.092 72.4071 127.084 72.1722 127.068 71.8967C127.068 71.6051 127.068 71.3216 127.068 71.0461C127.068 70.7707 127.068 70.5114 127.068 70.2684C127.068 70.0091 127.068 69.8066 127.068 69.6608C127.068 69.596 127.043 69.5473 126.995 69.5149C126.962 69.4663 126.914 69.442 126.849 69.442H120.773C120.692 69.442 120.627 69.4663 120.578 69.5149C120.546 69.5473 120.53 69.596 120.53 69.6608C120.53 69.9524 120.53 70.4709 120.53 71.2162C120.546 71.9454 120.554 72.7474 120.554 73.6223C120.554 74.4973 120.554 75.356 120.554 76.1986C120.554 77.0249 120.546 77.6811 120.53 78.1672C120.53 78.5723 120.522 79.0584 120.505 79.6255C120.489 80.1926 120.505 80.7759 120.554 81.3754C120.603 81.9587 120.7 82.542 120.846 83.1253C120.992 83.6924 121.218 84.1865 121.526 84.6078C121.737 84.8995 121.996 85.1587 122.304 85.3855C122.612 85.6124 122.944 85.8068 123.3 85.9688C123.657 86.1309 124.03 86.2524 124.418 86.3334C124.807 86.4144 125.18 86.4549 125.536 86.4549H130.106C131.24 86.4549 132.139 86.3091 132.803 86.0174C133.484 85.7258 134.067 85.2721 134.553 84.6564Z" fill="#222222"/>
<path d="M152.284 86.2362C152.284 86.301 152.26 86.3577 152.211 86.4063C152.179 86.4387 152.13 86.4549 152.065 86.4549H137.483C137.418 86.4549 137.361 86.4387 137.313 86.4063C137.28 86.3577 137.264 86.2929 137.264 86.2119C137.28 85.8878 137.297 85.2721 137.313 84.3648C137.329 83.4574 137.329 82.4042 137.313 81.2052C137.313 79.8928 137.305 78.5237 137.289 77.0978C137.289 75.6558 137.289 74.3434 137.289 73.1606C137.272 72.3342 137.248 71.6132 137.216 70.9975C137.199 70.3818 137.175 69.9443 137.143 69.6851C137.143 69.6041 137.159 69.5473 137.191 69.5149C137.24 69.4663 137.305 69.442 137.386 69.442H144.823C144.888 69.442 144.936 69.4663 144.969 69.5149C145.017 69.5473 145.042 69.596 145.042 69.6608C145.042 70.2117 145.025 70.7869 144.993 71.3864C144.977 71.9697 144.985 72.5287 145.017 73.0633C145.033 73.436 145.042 73.8087 145.042 74.1813C145.042 74.554 145.05 74.9267 145.066 75.2993C145.066 75.4776 145.066 75.7368 145.066 76.0771C145.066 76.4011 145.066 76.7414 145.066 77.0978C145.082 77.4543 145.09 77.7864 145.09 78.0943C145.106 78.3859 145.123 78.5804 145.139 78.6776C145.187 79.1313 145.333 79.4715 145.576 79.6984C145.819 79.909 146.087 80.0629 146.378 80.1602C146.686 80.2412 146.978 80.2817 147.253 80.2817C147.545 80.2817 147.756 80.2817 147.885 80.2817C147.999 80.2817 148.153 80.2817 148.347 80.2817C148.558 80.2817 148.784 80.2817 149.027 80.2817C149.271 80.2655 149.53 80.2493 149.805 80.2331C150.097 80.2169 150.372 80.2088 150.632 80.2088C150.907 80.1926 151.166 80.1845 151.409 80.1845C151.669 80.1683 151.887 80.1602 152.065 80.1602C152.13 80.1602 152.187 80.1845 152.236 80.2331C152.284 80.2655 152.309 80.3141 152.309 80.3789C152.292 80.7191 152.276 81.0351 152.26 81.3268C152.26 81.6184 152.252 81.8533 152.236 82.0316C152.219 82.307 152.211 82.5906 152.211 82.8822C152.211 83.1739 152.219 83.4574 152.236 83.7329C152.236 83.8301 152.236 83.984 152.236 84.1946C152.252 84.4053 152.26 84.6402 152.26 84.8995C152.26 85.1425 152.26 85.3936 152.26 85.6529C152.276 85.8959 152.284 86.0904 152.284 86.2362Z" fill="#222222"/>
<path d="M169.53 86.1633C169.482 85.9688 169.433 85.7744 169.384 85.58C169.336 85.3855 169.279 85.183 169.214 84.9724C168.89 83.6437 168.599 82.3151 168.339 80.9865C168.08 79.6417 167.805 78.2887 167.513 76.9277C167.27 75.7125 167.027 74.5054 166.784 73.3064C166.541 72.1074 166.355 70.8841 166.225 69.6365C166.209 69.5879 166.176 69.5473 166.128 69.5149C166.095 69.4663 166.047 69.442 165.982 69.442H156.649C156.584 69.442 156.528 69.4663 156.479 69.5149C156.447 69.5473 156.422 69.596 156.406 69.6608C156.39 69.8552 156.374 70.0496 156.357 70.2441C156.341 70.4385 156.317 70.6248 156.285 70.8031C156.106 72.1803 155.863 73.517 155.555 74.8132C155.248 76.0933 154.988 77.4138 154.778 78.7748C154.583 80.0224 154.397 81.27 154.219 82.5177C154.04 83.7491 153.814 84.9724 153.538 86.1876C153.522 86.2686 153.53 86.3334 153.562 86.382C153.611 86.4306 153.676 86.4549 153.757 86.4549H159.857C159.922 86.4549 159.971 86.4387 160.003 86.4063C160.052 86.3577 160.076 86.301 160.076 86.2362C160.092 85.8149 160.116 85.4017 160.149 84.9967C160.181 84.5916 160.214 84.1784 160.246 83.7572C160.295 83.1901 160.36 82.7769 160.441 82.5177C160.522 82.2584 160.724 82.1369 161.048 82.1531C161.275 82.1531 161.437 82.2017 161.534 82.2989C161.648 82.3799 161.729 82.4934 161.777 82.6392C161.826 82.7688 161.858 82.9227 161.874 83.101C161.891 83.263 161.915 83.425 161.947 83.587C161.996 83.7815 162.037 84.0002 162.069 84.2432C162.101 84.4863 162.126 84.7374 162.142 84.9967C162.174 85.2397 162.199 85.4747 162.215 85.7015C162.231 85.9283 162.247 86.1066 162.263 86.2362C162.263 86.301 162.28 86.3577 162.312 86.4063C162.361 86.4387 162.417 86.4549 162.482 86.4549H169.336C169.417 86.4549 169.474 86.4306 169.506 86.382C169.555 86.3172 169.563 86.2443 169.53 86.1633ZM160.708 76.4902C160.74 76.2472 160.765 76.0122 160.781 75.7854C160.797 75.5586 160.821 75.356 160.854 75.1778C160.902 74.9996 160.951 74.8618 161 74.7646C161.064 74.6512 161.153 74.5945 161.267 74.5945C161.413 74.5945 161.526 74.6674 161.607 74.8132C161.688 74.9429 161.745 75.1049 161.777 75.2993C161.826 75.4938 161.85 75.7044 161.85 75.9312C161.866 76.1419 161.883 76.3363 161.899 76.5145C161.915 76.6766 161.923 76.8791 161.923 77.1221C161.939 77.3652 161.931 77.6001 161.899 77.827C161.866 78.0376 161.793 78.2239 161.68 78.3859C161.583 78.5318 161.421 78.6047 161.194 78.6047C160.919 78.5885 160.748 78.4184 160.684 78.0943C160.619 77.754 160.627 77.2194 160.708 76.4902Z" fill="#222222"/>
<path d="M184.681 69.6608C184.681 69.596 184.657 69.5473 184.608 69.5149C184.576 69.4663 184.527 69.442 184.463 69.442H169.783C169.718 69.442 169.661 69.4663 169.613 69.5149C169.58 69.5473 169.564 69.596 169.564 69.6608C169.564 69.8714 169.564 70.1793 169.564 70.5843C169.564 70.9894 169.564 71.4188 169.564 71.8724C169.58 72.3261 169.588 72.7636 169.588 73.1849C169.605 73.5899 169.621 73.9059 169.637 74.1327C169.653 74.2299 169.661 74.3596 169.661 74.5216C169.678 74.6836 169.686 74.8618 169.686 75.0563C169.686 75.2345 169.686 75.4127 169.686 75.591C169.702 75.7692 169.71 75.9231 169.71 76.0528C169.71 76.1176 169.726 76.1743 169.759 76.2229C169.807 76.2553 169.864 76.2715 169.929 76.2715C170.074 76.2715 170.277 76.2715 170.536 76.2715C170.812 76.2715 171.079 76.2796 171.338 76.2958C171.614 76.2958 171.865 76.3039 172.092 76.3201C172.335 76.3201 172.505 76.3282 172.602 76.3444C172.91 76.393 173.104 76.5145 173.185 76.709C173.266 76.8872 173.315 77.1545 173.331 77.511C173.347 77.6244 173.356 77.8918 173.356 78.313C173.356 78.7181 173.347 79.2042 173.331 79.7713C173.331 80.3384 173.323 80.9541 173.307 81.6184C173.307 82.2827 173.299 82.9227 173.283 83.5384C173.283 84.1379 173.275 84.6807 173.258 85.1668C173.258 85.6529 173.258 86.0094 173.258 86.2362C173.258 86.301 173.275 86.3577 173.307 86.4063C173.356 86.4387 173.412 86.4549 173.477 86.4549H181.036C181.1 86.4549 181.149 86.4387 181.181 86.4063C181.23 86.3577 181.254 86.301 181.254 86.2362C181.254 86.0256 181.254 85.6934 181.254 85.2397C181.254 84.7698 181.254 84.2432 181.254 83.66C181.254 83.0767 181.254 82.4691 181.254 81.8371C181.254 81.2052 181.254 80.6138 181.254 80.0629C181.254 79.512 181.254 79.0341 181.254 78.629C181.271 78.2077 181.279 77.9323 181.279 77.8027C181.279 77.7054 181.287 77.592 181.303 77.4624C181.319 77.3328 181.343 77.2032 181.376 77.0735C181.425 76.9439 181.489 76.8305 181.57 76.7333C181.668 76.6198 181.797 76.5307 181.959 76.4659C182.073 76.4173 182.243 76.3849 182.47 76.3687C182.696 76.3363 182.931 76.312 183.174 76.2958C183.417 76.2796 183.652 76.2715 183.879 76.2715C184.122 76.2553 184.317 76.2472 184.463 76.2472C184.527 76.2472 184.576 76.231 184.608 76.1986C184.657 76.15 184.681 76.0933 184.681 76.0285C184.681 75.8988 184.681 75.7449 184.681 75.5667C184.697 75.3722 184.706 75.1697 184.706 74.9591C184.722 74.7484 184.73 74.5459 184.73 74.3515C184.746 74.157 184.754 73.995 184.754 73.8654C184.754 73.5575 184.754 73.2011 184.754 72.796C184.754 72.3909 184.746 71.9859 184.73 71.5808C184.73 71.1757 184.722 70.8031 184.706 70.4628C184.689 70.1063 184.681 69.839 184.681 69.6608Z" fill="#222222"/>
<path d="M201.221 74.6917C201.221 73.995 201.059 73.2821 200.735 72.553C200.427 71.8238 200.022 71.2243 199.52 70.7545C199.018 70.2846 198.475 69.9524 197.892 69.758C197.308 69.5473 196.66 69.442 195.947 69.442H190.965C190.139 69.442 189.45 69.6041 188.899 69.9281C188.348 70.2522 187.862 70.6491 187.441 71.119C187.117 71.4917 186.833 71.9697 186.59 72.553C186.347 73.1201 186.226 73.8006 186.226 74.5945V81.3511C186.226 81.6103 186.274 81.9101 186.372 82.2503C186.469 82.5744 186.59 82.8984 186.736 83.2225C186.898 83.5465 187.068 83.8463 187.246 84.1217C187.441 84.3972 187.619 84.624 187.781 84.8022C188.186 85.1911 188.689 85.5638 189.288 85.9202C189.904 86.2767 190.617 86.4549 191.427 86.4549H194.999C195.405 86.4549 195.81 86.4144 196.215 86.3334C196.636 86.2362 197.033 86.1147 197.406 85.9688C197.794 85.823 198.143 85.661 198.451 85.4828C198.775 85.3045 199.034 85.1182 199.228 84.9238C200.022 84.1946 200.549 83.425 200.808 82.6149C201.084 81.7885 201.221 80.946 201.221 80.0872V74.6917ZM194.441 80.0143C194.441 80.1115 194.432 80.2412 194.416 80.4032C194.4 80.549 194.359 80.6867 194.295 80.8164C194.23 80.946 194.141 81.0594 194.027 81.1566C193.914 81.2538 193.768 81.3025 193.59 81.3025C193.314 81.3025 193.079 81.189 192.885 80.9622C192.707 80.7354 192.618 80.2736 192.618 79.5769C192.618 79.2366 192.618 78.8801 192.618 78.5075C192.618 78.1186 192.618 77.754 192.618 77.4138C192.618 77.0573 192.61 76.7495 192.593 76.4902C192.593 76.2148 192.593 76.0122 192.593 75.8826C192.593 75.7692 192.601 75.6315 192.618 75.4695C192.634 75.3074 192.674 75.1535 192.739 75.0077C192.804 74.8619 192.901 74.7403 193.031 74.6431C193.177 74.5297 193.363 74.473 193.59 74.473C193.963 74.473 194.189 74.6188 194.27 74.9105C194.368 75.1859 194.432 75.5424 194.465 75.9798C194.497 76.4659 194.497 77.0897 194.465 77.8513C194.449 78.6128 194.441 79.3338 194.441 80.0143Z" fill="#222222"/>
<path d="M216.333 81.2781C216.235 81.0999 216.171 80.9379 216.138 80.7921C216.122 80.6462 216.179 80.5085 216.308 80.3789C216.584 80.0872 216.819 79.8037 217.013 79.5282C217.208 79.2366 217.362 78.9125 217.475 78.5561C217.605 78.1996 217.694 77.7783 217.742 77.2923C217.807 76.8062 217.84 76.2148 217.84 75.5181C217.84 75.1616 217.823 74.7889 217.791 74.4001C217.758 74.0112 217.702 73.6304 217.621 73.2578C217.54 72.8689 217.426 72.5044 217.281 72.1641C217.151 71.8076 216.989 71.4998 216.794 71.2405C216.503 70.8517 216.187 70.5357 215.847 70.2927C215.523 70.0496 215.174 69.8714 214.801 69.758C214.445 69.6284 214.064 69.5473 213.659 69.5149C213.254 69.4663 212.841 69.442 212.42 69.442H202.941C202.876 69.442 202.82 69.4663 202.771 69.5149C202.722 69.5473 202.698 69.596 202.698 69.6608C202.698 69.8714 202.698 70.1955 202.698 70.6329C202.714 71.0542 202.722 71.5241 202.722 72.0426C202.739 72.5449 202.747 73.0552 202.747 73.5737C202.747 74.076 202.747 74.5135 202.747 74.8862C202.747 75.4533 202.747 76.1986 202.747 77.1221C202.747 78.0457 202.747 78.9692 202.747 79.8928C202.747 80.8164 202.747 81.667 202.747 82.4447C202.747 83.2063 202.747 83.7086 202.747 83.9516C202.747 84.3243 202.739 84.7374 202.722 85.1911C202.706 85.6448 202.69 85.985 202.674 86.2119C202.674 86.2767 202.69 86.3334 202.722 86.382C202.771 86.4306 202.828 86.4549 202.892 86.4549H209.333C209.398 86.4549 209.446 86.4387 209.479 86.4063C209.527 86.3577 209.552 86.301 209.552 86.2362C209.552 86.058 209.552 85.823 209.552 85.5314C209.552 85.2235 209.552 84.8995 209.552 84.5592C209.552 84.2027 209.552 83.8544 209.552 83.5141C209.568 83.1739 209.584 82.8903 209.6 82.6635C209.6 82.5987 209.625 82.542 209.673 82.4934C209.722 82.4447 209.779 82.4204 209.843 82.4204C209.924 82.4042 209.997 82.4123 210.062 82.4447C210.143 82.4771 210.208 82.542 210.257 82.6392C210.321 82.7526 210.419 82.9794 210.548 83.3197C210.694 83.6437 210.84 84.0002 210.986 84.3891C211.148 84.7779 211.294 85.1506 211.423 85.5071C211.569 85.8635 211.666 86.1228 211.715 86.2848C211.731 86.3334 211.755 86.3739 211.788 86.4063C211.836 86.4387 211.885 86.4549 211.934 86.4549H217.548C217.629 86.4549 217.686 86.4306 217.718 86.382C217.767 86.3172 217.783 86.2443 217.767 86.1633C217.718 85.9364 217.637 85.6124 217.524 85.1911C217.426 84.7536 217.305 84.2919 217.159 83.8058C217.029 83.3197 216.892 82.8498 216.746 82.3961C216.6 81.9263 216.462 81.5536 216.333 81.2781ZM210.767 76.6361C210.735 77.0573 210.629 77.3571 210.451 77.5353C210.289 77.6973 210.111 77.7702 209.916 77.754C209.706 77.7378 209.576 77.6568 209.527 77.511C209.495 77.349 209.479 77.2032 209.479 77.0735C209.463 76.7495 209.455 76.3525 209.455 75.8826C209.471 75.4127 209.479 75.032 209.479 74.7403V73.8654C209.479 73.7844 209.519 73.7115 209.6 73.6466C209.698 73.5818 209.803 73.5494 209.916 73.5494C210.095 73.5494 210.257 73.6223 210.402 73.7682C210.548 73.8978 210.654 74.2056 210.718 74.6917C210.751 74.9834 210.775 75.2831 210.791 75.591C210.808 75.8988 210.799 76.2472 210.767 76.6361Z" fill="#222222"/>
<path d="M29.4637 40.9664C29.4637 40.8776 29.4304 40.8111 29.3638 40.7667C29.2973 40.7002 29.2086 40.6669 29.0977 40.6669H9.9321C8.49025 40.6669 7.25912 40.8 6.23874 41.0662C5.21835 41.3324 4.36433 41.6651 3.67668 42.0644C3.0112 42.4637 2.47883 42.8962 2.07955 43.362C1.70245 43.8057 1.42517 44.2161 1.24771 44.5932C0.715331 45.7023 0.415869 46.8447 0.349322 48.0203C0.282775 49.1738 0.42696 50.3384 0.781878 51.5141C0.937154 52.0464 1.2588 52.5123 1.74681 52.9115C2.23482 53.3108 2.81156 53.6547 3.47703 53.943C4.16469 54.2314 4.9078 54.4643 5.70636 54.6418C6.50492 54.8192 7.28131 54.9634 8.03551 55.0743C8.81189 55.1631 9.53282 55.2296 10.1983 55.274C10.8638 55.2961 11.4072 55.2961 11.8287 55.274C12.2502 55.2518 12.6938 55.2185 13.1596 55.1741C13.6255 55.1298 14.0469 55.1187 14.424 55.1409C14.8233 55.1409 15.145 55.1963 15.389 55.3072C15.633 55.4182 15.755 55.6178 15.755 55.9062C15.755 56.1945 15.5775 56.4274 15.2226 56.6049C14.8677 56.7824 14.2244 56.9266 13.2927 57.0375C12.3832 57.1262 11.1299 57.1816 9.53282 57.2038C7.95787 57.226 5.93928 57.2149 3.47703 57.1706C3.43267 57.1706 3.29957 57.1706 3.07775 57.1706C2.85593 57.1706 2.60083 57.1706 2.31246 57.1706C2.04627 57.1484 1.76899 57.1373 1.48062 57.1373C1.19225 57.1151 0.959337 57.104 0.781878 57.104C0.693148 57.104 0.61551 57.1373 0.548963 57.2038C0.504598 57.2482 0.482416 57.3147 0.482416 57.4035C0.482416 57.6253 0.482416 57.9248 0.482416 58.3019C0.504598 58.679 0.51569 59.0893 0.51569 59.533C0.51569 59.9544 0.504598 60.3759 0.482416 60.7974C0.482416 61.2188 0.471325 61.5848 0.449142 61.8954C0.42696 62.095 0.404778 62.3834 0.382595 62.7605C0.382595 63.1154 0.382595 63.4149 0.382595 63.6589C0.382595 63.7476 0.415869 63.8253 0.482416 63.8918C0.548963 63.9362 0.637692 63.9584 0.748604 63.9584C1.14789 63.9584 1.83554 63.9584 2.81156 63.9584C3.80977 63.9584 4.94107 63.9584 6.20546 63.9584C7.49204 63.9362 8.83407 63.9251 10.2316 63.9251C11.629 63.9251 12.9156 63.9251 14.0913 63.9251C15.2891 63.9029 16.2984 63.8918 17.1192 63.8918C17.9399 63.8918 18.4168 63.8918 18.5499 63.8918C20.1027 63.8918 21.4226 63.8474 22.5095 63.7587C23.5964 63.67 24.517 63.5369 25.2712 63.3594C26.0476 63.1598 26.6909 62.9158 27.2011 62.6274C27.7113 62.3169 28.1549 61.9509 28.532 61.5294C29.1531 60.8196 29.5413 60.1319 29.6966 59.4664C29.874 58.7788 29.9628 58.2686 29.9628 57.9358C29.9628 56.738 29.8851 55.7731 29.7298 55.0411C29.5746 54.309 29.3527 53.7101 29.0644 53.2443C28.776 52.7563 28.4322 52.3681 28.0329 52.0797C27.6558 51.7692 27.2343 51.4586 26.7685 51.148C26.3692 50.8819 25.7814 50.66 25.005 50.4826C24.2508 50.2829 23.4522 50.1277 22.6093 50.0168C21.7664 49.9058 20.9567 49.8393 20.1803 49.8171C19.404 49.7727 18.805 49.7506 18.3836 49.7506C16.8974 49.8171 15.7661 49.7617 14.9897 49.5842C14.2133 49.3846 13.814 49.0518 13.7918 48.586C13.7918 48.3642 13.8806 48.1867 14.058 48.0536C14.2577 47.9205 14.5128 47.8207 14.8233 47.7542C15.1339 47.6654 15.4888 47.61 15.8881 47.5878C16.3095 47.5434 16.7532 47.5212 17.219 47.5212C17.3965 47.5212 17.7847 47.5323 18.3836 47.5545C19.0047 47.5545 19.7256 47.5656 20.5464 47.5878C21.3671 47.61 22.2322 47.6321 23.1417 47.6543C24.0733 47.6765 24.9606 47.6987 25.8036 47.7209C26.6465 47.7431 27.3785 47.7652 27.9996 47.7874C28.6429 47.8096 29.0866 47.8318 29.3306 47.854C29.4193 47.8762 29.4969 47.854 29.5635 47.7874C29.63 47.7209 29.6522 47.6321 29.63 47.5212C29.63 47.3438 29.6189 47.133 29.5968 46.889C29.5746 46.645 29.5524 46.401 29.5302 46.157C29.5302 45.913 29.5191 45.6801 29.4969 45.4583C29.4969 45.2365 29.4969 45.0701 29.4969 44.9592C29.4969 44.0275 29.4858 43.2068 29.4637 42.4969C29.4637 41.7871 29.4637 41.2769 29.4637 40.9664Z" fill="#222222"/>
<path d="M59.7816 61.4961C60.2474 61.0303 60.6134 60.5201 60.8796 59.9655C61.1458 59.411 61.3343 58.8564 61.4452 58.3019C61.5783 57.7251 61.656 57.1595 61.6782 56.6049C61.7225 56.0282 61.7447 55.4958 61.7447 55.0078V40.9664C61.7447 40.8776 61.7114 40.8111 61.6449 40.7667C61.6005 40.7002 61.534 40.6669 61.4452 40.6669H48.5684C48.4353 40.6669 48.3244 40.7002 48.2357 40.7667C48.1469 40.8111 48.1026 40.8776 48.1026 40.9664C48.1026 41.1438 48.1026 41.3656 48.1026 41.6318C48.1026 41.898 48.1026 42.1864 48.1026 42.4969C48.1026 42.7853 48.1026 43.0737 48.1026 43.362C48.1026 43.6504 48.1026 43.8944 48.1026 44.0941C48.1026 44.4933 48.1026 45.0701 48.1026 45.8243C48.1026 46.5785 48.1026 47.3549 48.1026 48.1534C48.1026 48.952 48.0915 49.6951 48.0693 50.3828C48.0693 51.0704 48.0693 51.5473 48.0693 51.8135C48.0693 52.0575 48.0693 52.3459 48.0693 52.6786C48.0693 53.0114 48.0249 53.333 47.9362 53.6436C47.8696 53.9319 47.7365 54.1759 47.5369 54.3756C47.3373 54.5752 47.0378 54.675 46.6385 54.675C46.3058 54.675 46.0507 54.5863 45.8732 54.4089C45.718 54.2314 45.596 54.0207 45.5072 53.7767C45.4185 53.5105 45.363 53.2332 45.3409 52.9448C45.3187 52.6565 45.3076 52.3792 45.3076 52.113C45.2854 51.6915 45.2743 51.148 45.2743 50.4826C45.2743 49.8171 45.2743 49.1405 45.2743 48.4529C45.2743 47.7431 45.2743 47.0776 45.2743 46.4565C45.2965 45.8354 45.3076 45.3474 45.3076 44.9924C45.3076 44.7263 45.2965 44.4046 45.2743 44.0275C45.2743 43.6282 45.2743 43.24 45.2743 42.8629C45.2743 42.4858 45.2743 42.1309 45.2743 41.7982C45.2743 41.4433 45.2743 41.166 45.2743 40.9664C45.2743 40.8776 45.2299 40.8111 45.1412 40.7667C45.0525 40.7002 44.9416 40.6669 44.8085 40.6669H32.4307C32.3198 40.6669 32.2311 40.7002 32.1645 40.7667C32.1202 40.8111 32.098 40.8776 32.098 40.9664C32.098 41.3656 32.098 42.0755 32.098 43.0959C32.1202 44.0941 32.1313 45.1921 32.1313 46.3899C32.1313 47.5878 32.1313 48.7634 32.1313 49.9169C32.1313 51.0482 32.1202 51.9466 32.098 52.6121C32.098 53.1666 32.0758 53.8321 32.0314 54.6085C31.9871 55.3849 31.9871 56.1834 32.0314 57.0042C32.0758 57.8028 32.1978 58.6013 32.3974 59.3999C32.6193 60.1763 32.9742 60.8528 33.4622 61.4296C33.8171 61.8289 34.283 62.1838 34.8597 62.4943C35.4364 62.8049 36.0908 63.0711 36.8228 63.2929C37.5548 63.5147 38.3201 63.6811 39.1187 63.792C39.9173 63.9029 40.6936 63.9584 41.4478 63.9584H50.8975C53.2489 63.9584 55.1122 63.7698 56.4875 63.3927C57.885 62.9934 58.983 62.3612 59.7816 61.4961Z" fill="#222222"/>
<path d="M93.4902 63.6589C93.4902 63.2818 93.4792 62.6385 93.457 61.729C93.4348 60.7974 93.4126 59.7992 93.3904 58.7344C93.3683 57.6475 93.3461 56.5827 93.3239 55.5402C93.3239 54.4754 93.3239 53.6103 93.3239 52.9448C93.3239 52.0353 93.335 50.9706 93.3572 49.7506C93.3793 48.5305 93.4015 47.3327 93.4237 46.157C93.4681 44.9814 93.5013 43.9166 93.5235 42.9628C93.5457 42.0089 93.5679 41.3435 93.5901 40.9664C93.5901 40.8776 93.5568 40.8111 93.4902 40.7667C93.4459 40.7002 93.3683 40.6669 93.2573 40.6669H81.6781C81.5894 40.6669 81.5118 40.7002 81.4452 40.7667C81.4009 40.8111 81.3787 40.8776 81.3787 40.9664C81.3787 41.1882 81.3787 41.5098 81.3787 41.9313C81.3787 42.3306 81.3787 42.7742 81.3787 43.2622C81.3787 43.7281 81.3787 44.1939 81.3787 44.6597C81.3787 45.1034 81.3787 45.4915 81.3787 45.8243C81.3787 46.2457 81.3676 46.6339 81.3454 46.9889C81.3454 47.3438 81.168 47.5212 80.813 47.5212C80.4581 47.5212 80.2141 47.3881 80.081 47.122C79.9701 46.8336 79.8925 46.6228 79.8481 46.4898C79.715 46.1348 79.5819 45.6912 79.4488 45.1588C79.3157 44.6264 79.1826 44.083 79.0495 43.5284C78.9386 42.9739 78.8388 42.4526 78.7501 41.9646C78.6835 41.4765 78.6281 41.1216 78.5837 40.8998C78.5615 40.8333 78.5172 40.7778 78.4506 40.7334C78.4063 40.6891 78.3397 40.6669 78.251 40.6669H64.1097C64.021 40.6669 63.9434 40.7002 63.8768 40.7667C63.8103 40.8111 63.777 40.8776 63.777 40.9664C63.777 41.3213 63.777 41.9424 63.777 42.8297C63.7992 43.6948 63.8103 44.6597 63.8103 45.7245C63.8324 46.767 63.8435 47.8207 63.8435 48.8854C63.8657 49.9502 63.8768 50.8708 63.8768 51.6472C63.8768 52.5344 63.8657 53.5881 63.8435 54.8081C63.8435 56.0282 63.8324 57.2371 63.8103 58.435C63.8103 59.6106 63.7992 60.6754 63.777 61.6292C63.7548 62.5831 63.7437 63.2596 63.7437 63.6589C63.7437 63.7476 63.7659 63.8253 63.8103 63.8918C63.8768 63.9362 63.9544 63.9584 64.0432 63.9584H75.3895C75.5004 63.9584 75.578 63.9362 75.6224 63.8918C75.6889 63.8253 75.7222 63.7365 75.7222 63.6256C75.7222 63.3816 75.7111 63.0378 75.6889 62.5941C75.6667 62.1505 75.6445 61.6736 75.6224 61.1634C75.6224 60.6532 75.6224 60.1541 75.6224 59.6661C75.6224 59.1781 75.6335 58.7677 75.6556 58.435C75.6556 58.1244 75.7111 57.9248 75.822 57.836C75.9329 57.7251 76.0549 57.6808 76.188 57.7029C76.3433 57.7251 76.4875 57.8028 76.6206 57.9358C76.7758 58.0468 76.8868 58.1688 76.9533 58.3019C77.1973 58.7899 77.3748 59.3888 77.4857 60.0986C77.6188 60.8085 77.7962 61.4739 78.0181 62.095C78.0846 62.3169 78.1511 62.5941 78.2177 62.9269C78.3064 63.2596 78.373 63.5258 78.4173 63.7254C78.4395 63.792 78.4728 63.8474 78.5172 63.8918C78.5837 63.9362 78.6503 63.9584 78.7168 63.9584H93.1908C93.2795 63.9584 93.3461 63.9362 93.3904 63.8918C93.457 63.8253 93.4902 63.7476 93.4902 63.6589Z" fill="#222222"/>
<path d="M135.755 48.9853C135.733 48.7856 135.655 48.4529 135.522 47.9871C135.389 47.4991 135.178 46.9556 134.89 46.3567C134.602 45.7577 134.213 45.1477 133.725 44.5266C133.237 43.9055 132.639 43.351 131.929 42.8629C131.263 42.4193 130.576 42.0533 129.866 41.7649C129.156 41.4765 128.413 41.2547 127.636 41.0994C126.86 40.922 126.017 40.8111 125.108 40.7667C124.22 40.7002 123.267 40.6669 122.246 40.6669H106.807C106.674 40.6669 106.574 40.7002 106.508 40.7667C106.441 40.8111 106.408 40.8776 106.408 40.9664V48.5527C106.43 49.6618 106.463 50.7599 106.508 51.8468C106.552 52.9115 106.596 53.9874 106.641 55.0743C106.663 55.5402 106.674 56.1724 106.674 56.9709C106.674 57.7473 106.663 58.568 106.641 59.4332C106.641 60.2761 106.63 61.0857 106.608 61.8621C106.585 62.6385 106.574 63.2374 106.574 63.6589C106.574 63.7476 106.608 63.8253 106.674 63.8918C106.741 63.9362 106.84 63.9584 106.974 63.9584H123.244C124.686 63.9584 125.928 63.8918 126.971 63.7587C128.036 63.6256 128.945 63.4593 129.699 63.2596C130.454 63.06 131.075 62.8381 131.563 62.5941C132.051 62.328 132.45 62.0618 132.761 61.7956C133.537 61.0857 134.158 60.3426 134.624 59.5663C135.09 58.7677 135.434 58.0135 135.655 57.3037C135.855 56.5938 135.988 55.5069 136.055 54.0428C136.143 52.5566 136.044 50.8708 135.755 48.9853ZM124.409 53.211C124.143 53.3219 123.699 53.3996 123.078 53.4439C122.457 53.4883 121.814 53.5216 121.148 53.5437C120.505 53.5437 119.895 53.5437 119.318 53.5437C118.763 53.5437 118.409 53.5437 118.253 53.5437C118.187 53.5437 118.098 53.4772 117.987 53.3441C117.898 53.211 117.854 52.8339 117.854 52.2128C117.854 51.5917 117.898 51.2257 117.987 51.1148C118.076 50.9817 118.165 50.9151 118.253 50.9151C118.519 50.9151 118.908 50.9151 119.418 50.9151C119.95 50.9151 120.472 50.9151 120.982 50.9151C121.514 50.9151 122.002 50.9151 122.446 50.9151C122.912 50.9151 123.211 50.9151 123.344 50.9151C123.743 50.9151 124.098 50.9595 124.409 51.0482C124.742 51.1148 124.997 51.3144 125.174 51.6472C125.285 51.8912 125.285 52.1795 125.174 52.5123C125.063 52.8228 124.808 53.0557 124.409 53.211Z" fill="#222222"/>
<path d="M167.723 63.5591C167.612 63.2929 167.512 63.0267 167.424 62.7605C167.357 62.4943 167.268 62.217 167.157 61.9287C166.603 60.1097 166.104 58.2908 165.66 56.4718C165.216 54.6307 164.751 52.7785 164.263 50.9151C163.819 49.2515 163.386 47.5989 162.965 45.9574C162.566 44.3159 162.255 42.6411 162.033 40.9331C162.011 40.8665 161.967 40.8111 161.9 40.7667C161.834 40.7002 161.745 40.6669 161.634 40.6669H142.069C141.958 40.6669 141.869 40.7002 141.803 40.7667C141.736 40.8111 141.692 40.8776 141.67 40.9664C141.648 41.2325 141.614 41.4987 141.57 41.7649C141.548 42.0311 141.503 42.2862 141.437 42.5302C141.171 44.4157 140.783 46.2457 140.272 48.0203C139.762 49.7727 139.33 51.5806 138.975 53.4439C138.664 55.152 138.354 56.86 138.043 58.568C137.755 60.2539 137.389 61.9287 136.945 63.5924C136.901 63.7033 136.912 63.792 136.978 63.8585C137.045 63.9251 137.134 63.9584 137.244 63.9584H149.423C149.556 63.9584 149.667 63.9362 149.755 63.8918C149.844 63.8253 149.888 63.7476 149.888 63.6589C149.911 63.0822 149.944 62.5165 149.988 61.9619C150.033 61.4074 150.077 60.8417 150.121 60.265C150.188 59.4886 150.343 58.9341 150.587 58.6013C150.853 58.2464 151.208 58.0689 151.652 58.0689C152.096 58.0689 152.417 58.1355 152.617 58.2686C152.839 58.3795 152.994 58.5348 153.083 58.7344C153.171 58.9119 153.227 59.1226 153.249 59.3666C153.271 59.5884 153.304 59.8103 153.349 60.0321C153.415 60.2983 153.471 60.5977 153.515 60.9305C153.56 61.2632 153.593 61.607 153.615 61.9619C153.659 62.2947 153.693 62.6163 153.715 62.9269C153.737 63.2374 153.759 63.4814 153.781 63.6589C153.781 63.7476 153.815 63.8253 153.881 63.8918C153.97 63.9362 154.081 63.9584 154.214 63.9584H167.457C167.568 63.9584 167.645 63.9251 167.69 63.8585C167.756 63.7698 167.767 63.67 167.723 63.5591ZM150.753 50.3162C150.798 49.9835 150.831 49.6618 150.853 49.3513C150.898 49.0407 150.953 48.7634 151.02 48.5194C151.108 48.2754 151.208 48.0869 151.319 47.9538C151.452 47.7985 151.641 47.7209 151.885 47.7209C152.218 47.7209 152.473 47.8207 152.65 48.0203C152.828 48.1978 152.961 48.4196 153.049 48.6858C153.138 48.952 153.194 49.2404 153.216 49.5509C153.238 49.8393 153.26 50.1055 153.282 50.3495C153.304 50.5713 153.293 50.8486 153.249 51.1813C153.227 51.5141 153.16 51.8357 153.049 52.1463C152.938 52.4346 152.783 52.6897 152.584 52.9115C152.406 53.1112 152.162 53.211 151.852 53.211C151.474 53.1888 151.164 52.9559 150.92 52.5123C150.676 52.0464 150.62 51.3144 150.753 50.3162Z" fill="#222222"/>
<path d="M199.027 63.6589C199.027 63.7476 198.993 63.8253 198.927 63.8918C198.882 63.9362 198.816 63.9584 198.727 63.9584H169.879C169.79 63.9584 169.713 63.9362 169.646 63.8918C169.602 63.8253 169.58 63.7365 169.58 63.6256C169.602 63.182 169.613 62.339 169.613 61.0968C169.635 59.8546 169.646 58.4128 169.646 56.7713C169.624 54.9745 169.613 53.1001 169.613 51.148C169.635 49.1738 169.635 47.377 169.613 45.7577C169.613 44.6264 169.591 43.6393 169.546 42.7964C169.502 41.9535 169.458 41.3545 169.413 40.9996C169.413 40.8887 169.435 40.8111 169.48 40.7667C169.546 40.7002 169.635 40.6669 169.746 40.6669H184.353C184.442 40.6669 184.508 40.7002 184.553 40.7667C184.619 40.8111 184.652 40.8776 184.652 40.9664C184.652 41.7206 184.63 42.508 184.586 43.3288C184.564 44.1273 184.575 44.8926 184.619 45.6246C184.641 46.1348 184.652 46.645 184.652 47.1552C184.652 47.6654 184.664 48.1756 184.686 48.6858C184.686 48.9298 184.686 49.2847 184.686 49.7506C184.686 50.1942 184.686 50.66 184.686 51.148C184.708 51.6361 184.719 52.0908 184.719 52.5123C184.741 52.9115 184.763 53.1777 184.786 53.3108C184.852 53.9319 185.052 54.3978 185.384 54.7083C185.717 54.9967 186.083 55.2074 186.482 55.3405C186.904 55.4514 187.303 55.5069 187.68 55.5069C188.08 55.5069 188.368 55.5069 188.545 55.5069C188.701 55.5069 189.022 55.5069 189.51 55.5069C190.021 55.5069 190.608 55.5069 191.274 55.5069C191.939 55.4847 192.649 55.4625 193.403 55.4403C194.18 55.4182 194.912 55.4071 195.599 55.4071C196.309 55.3849 196.941 55.3738 197.496 55.3738C198.073 55.3516 198.483 55.3405 198.727 55.3405C198.816 55.3405 198.894 55.3738 198.96 55.4403C199.027 55.4847 199.06 55.5512 199.06 55.64C199.038 56.1058 199.015 56.5384 198.993 56.9376C198.993 57.3369 198.982 57.6586 198.96 57.9026C198.938 58.2797 198.927 58.6679 198.927 59.0672C198.927 59.4664 198.938 59.8546 198.96 60.2317C198.96 60.3648 198.96 60.5756 198.96 60.8639C198.982 61.1523 198.993 61.4739 198.993 61.8289C198.993 62.1616 198.993 62.5054 198.993 62.8603C199.015 63.1931 199.027 63.4593 199.027 63.6589Z" fill="#222222"/>
<path d="M217.1 40.6669H201.361C201.273 40.6669 201.195 40.7002 201.129 40.7667C201.084 40.8111 201.062 40.8776 201.062 40.9664C201.062 41.2547 201.062 41.7206 201.062 42.3638C201.084 42.9849 201.095 43.7059 201.095 44.5266C201.117 45.3252 201.129 46.1903 201.129 47.122C201.151 48.0314 201.162 48.9187 201.162 49.7838C201.184 50.6268 201.195 51.4142 201.195 52.1463C201.217 52.8561 201.228 53.4328 201.228 53.8765C201.228 54.2979 201.228 54.9745 201.228 55.9062C201.228 56.8378 201.217 57.8138 201.195 58.8342C201.195 59.8546 201.184 60.8196 201.162 61.729C201.14 62.6385 201.129 63.2818 201.129 63.6589C201.129 63.7476 201.151 63.8253 201.195 63.8918C201.262 63.9362 201.339 63.9584 201.428 63.9584H217.366C217.477 63.9584 217.555 63.9362 217.599 63.8918C217.666 63.8253 217.699 63.7365 217.699 63.6256C217.677 63.2263 217.643 62.5498 217.599 61.5959C217.577 60.6421 217.543 59.6328 217.499 58.568C217.477 57.4811 217.455 56.4607 217.433 55.5069C217.41 54.553 217.399 53.8876 217.399 53.5105C217.399 52.4457 217.399 51.2701 217.399 49.9835C217.399 48.6747 217.399 47.4214 217.399 46.2236C217.399 45.0035 217.399 43.9166 217.399 42.9628C217.399 42.0089 217.399 41.3435 217.399 40.9664C217.399 40.8776 217.366 40.8111 217.299 40.7667C217.255 40.7002 217.189 40.6669 217.1 40.6669Z" fill="#222222"/>
<path d="M110.821 19.3749C110.522 19.3289 110.22 19.292 109.915 19.2646L111.731 3.68518L108.61 0L105.489 3.68518L107.306 19.2645C107.001 19.2919 106.699 19.3288 106.399 19.3749L103.893 6.80823L102.25 8.95879L105.388 19.5679C103.795 19.9319 102.303 20.5599 100.959 21.4036L95.6768 11.6817L92.9943 11.3228L100.108 21.9817C99.8622 22.1617 99.6223 22.3493 99.3887 22.5441L89.6571 10.2434L84.8444 9.84451L85.2432 14.6573L97.5439 24.3888C97.349 24.6224 97.1614 24.8622 96.9814 25.108L86.3227 17.9945L86.6816 20.677L96.4032 25.9595C95.5593 27.3029 94.931 28.7956 94.567 30.3889L83.959 27.2504L81.8085 28.8935L94.3738 31.4C94.3277 31.6992 94.2909 32.0015 94.2635 32.3065L78.6854 30.49L75.0003 33.611L142.222 33.6111L138.537 30.4899L122.956 32.3068C122.929 32.0019 122.892 31.6997 122.846 31.4006L135.414 28.8935L133.264 27.2504L122.653 30.3897C122.289 28.7966 121.661 27.3041 120.817 25.9607L130.541 20.6769L130.9 17.9945L120.239 25.1094C120.059 24.8636 119.872 24.6238 119.677 24.3903L131.98 14.6573L132.379 9.84449L127.566 10.2434L117.833 22.5457C117.599 22.3508 117.36 22.1632 117.114 21.9832L124.229 11.3228L121.546 11.6817L116.263 21.405C114.919 20.5607 113.426 19.9322 111.832 19.568L114.971 8.95879L113.328 6.80823L110.821 19.3749Z" fill="#FFB714"/>
</svg>
