<svg width="432" height="664" viewBox="0 0 432 664" fill="none" xmlns="http://www.w3.org/2000/svg">
<path d="M173.563 13.4615C184.733 14.4815 194.453 10.0415 204.393 5.79155C218.413 -0.198454 232.993 -1.54846 248.083 1.77154C257.593 3.86154 267.363 4.76154 276.973 6.44154C290.063 8.73154 302.243 13.4015 313.143 21.1515C343.813 42.9515 367.873 70.7115 385.753 103.662C398.353 126.872 410.203 150.532 418.323 175.802C422.803 189.732 426.253 203.912 429.153 218.302C433.593 240.352 430.743 262.032 426.413 283.432C422.863 301.002 419.233 318.612 414.743 335.992C412.083 346.302 408.653 356.422 405.753 366.672C403.373 375.072 401.563 383.632 398.963 391.952C394.993 404.642 390.733 417.232 386.283 429.762C382.373 440.772 378.143 451.672 373.073 462.222C369.743 469.152 366.193 476.102 362.033 482.402C355.123 492.862 351.813 504.652 347.003 515.892C343.573 523.912 339.933 531.862 338.133 540.452C336.453 548.492 334.093 556.362 332.943 564.552C331.583 574.202 329.533 583.762 327.823 593.362C326.923 598.412 326.183 603.482 325.223 608.512C322.493 622.782 317.013 635.522 305.243 644.882C297.913 650.712 291.093 657.222 281.743 659.932C276.483 661.452 271.253 662.982 265.743 663.152C246.603 663.752 227.513 662.042 208.483 660.752C191.153 659.572 174.773 653.302 159.563 644.652C146.313 637.122 134.543 627.422 122.333 618.422C99.983 601.952 78.633 584.112 60.523 563.022C46.293 546.462 32.793 529.012 24.843 508.332C19.813 495.252 14.963 482.092 11.423 468.412C4.46302 441.472 1.64302 414.282 1.33302 386.492C1.03302 359.072 -0.326983 331.652 0.0730166 304.212C0.233017 293.222 2.67302 282.542 4.77302 271.802C6.45302 263.242 7.82302 254.602 9.31302 246.012C11.263 234.782 13.333 223.622 15.863 212.502C18.503 200.902 19.043 188.932 21.683 177.302C24.533 164.742 25.883 151.902 29.173 139.382C31.633 130.022 32.803 120.302 35.183 110.852C37.283 102.542 39.273 94.2515 43.653 86.7715C48.873 77.8615 51.933 67.8115 58.733 59.7115C69.463 46.9315 82.903 38.6316 98.913 34.4716C105.503 32.7616 111.183 29.1416 117.383 26.6416C117.463 28.3716 118.003 29.5315 119.773 30.5215C132.393 37.5715 151.943 34.4616 161.063 23.4716C163.233 20.8516 165.533 19.1616 168.843 18.8916C172.243 18.6116 173.993 17.0115 173.543 13.4515L173.563 13.4615Z" fill="#FFB714"/>
<path d="M173.563 13.4617C174.013 17.0117 172.263 18.6217 168.863 18.9017C165.553 19.1717 163.253 20.8617 161.083 23.4817C151.953 34.4717 132.413 37.5817 119.793 30.5317C118.023 29.5417 117.483 28.3817 117.403 26.6517C116.953 22.9617 118.803 20.5017 121.973 19.2517C124.733 18.1617 126.083 16.2317 127.143 13.6617C129.213 8.64172 133.013 5.82173 138.473 5.22173C143.413 4.67173 148.333 3.56173 153.283 3.40173C161.703 3.13173 168.043 7.61173 173.563 13.4817V13.4617Z" fill="#73625A"/>
</svg>
