<svg width="226" height="348" viewBox="0 0 226 348" fill="none" xmlns="http://www.w3.org/2000/svg">
<path d="M90.9285 7.05241C96.7804 7.58679 101.873 5.2607 107.08 3.03415C114.425 -0.103969 122.064 -0.811227 129.969 0.928099C134.951 2.02304 140.07 2.49454 145.104 3.37468C151.962 4.5744 158.343 7.02098 164.054 11.0812C180.121 22.502 192.726 37.0453 202.094 54.3076C208.695 66.4672 214.903 78.8625 219.157 92.1013C221.504 99.3991 223.311 106.828 224.83 114.367C227.157 125.919 225.663 137.277 223.395 148.488C221.535 157.693 219.633 166.919 217.281 176.024C215.888 181.425 214.091 186.727 212.571 192.097C211.325 196.498 210.376 200.982 209.014 205.341C206.934 211.989 204.702 218.585 202.371 225.149C200.323 230.917 198.107 236.628 195.451 242.155C193.706 245.785 191.846 249.426 189.667 252.727C186.047 258.207 184.313 264.384 181.793 270.272C179.996 274.474 178.089 278.639 177.146 283.139C176.266 287.351 175.029 291.474 174.427 295.765C173.714 300.82 172.64 305.829 171.744 310.858C171.273 313.504 170.885 316.16 170.382 318.795C168.952 326.271 166.081 332.946 159.915 337.849C156.075 340.904 152.502 344.314 147.603 345.734C144.848 346.53 142.108 347.332 139.221 347.421C129.194 347.735 119.193 346.839 109.223 346.163C100.144 345.545 91.5625 342.26 83.594 337.729C76.6524 333.784 70.4862 328.702 64.0895 323.987C52.3805 315.358 41.1953 306.012 31.7076 294.963C24.2526 286.288 17.18 277.146 13.0151 266.312C10.3799 259.459 7.83903 252.565 5.98444 245.398C2.33815 231.284 0.860766 217.039 0.698359 202.48C0.541191 188.115 -0.171304 173.75 0.0382529 159.374C0.122076 153.617 1.40038 148.022 2.50055 142.395C3.38069 137.911 4.09843 133.384 4.87903 128.884C5.90062 123.001 6.98508 117.154 8.31053 111.328C9.69361 105.251 9.97651 98.98 11.3596 92.8871C12.8527 86.307 13.5599 79.5802 15.2836 73.0211C16.5723 68.1174 17.1853 63.0252 18.4322 58.0744C19.5323 53.7208 20.5749 49.3778 22.8695 45.459C25.6043 40.7912 27.2074 35.526 30.7698 31.2825C36.3912 24.5871 43.4324 20.2388 51.8199 18.0594C55.2724 17.1636 58.2481 15.2671 61.4962 13.9573C61.5381 14.8637 61.821 15.4714 62.7483 15.99C69.3598 19.6835 79.602 18.0542 84.3799 12.2966C85.5167 10.924 86.7217 10.0386 88.4558 9.89716C90.237 9.75047 91.1538 8.91224 90.9181 7.04718L90.9285 7.05241Z" fill="#FFB714"/>
<path d="M90.9282 7.05281C91.164 8.91263 90.2472 9.7561 88.4659 9.90279C86.7318 10.0442 85.5269 10.9296 84.39 12.3022C79.6069 18.0598 69.37 19.6891 62.7585 15.9957C61.8312 15.477 61.5483 14.8693 61.5064 13.963C61.2706 12.0298 62.2398 10.741 63.9006 10.0862C65.3465 9.51511 66.0538 8.50399 66.6091 7.15758C67.6936 4.52764 69.6844 3.05026 72.5448 2.73593C75.1328 2.44779 77.7104 1.86626 80.3037 1.78244C84.7149 1.64099 88.0363 3.98803 90.9282 7.06329V7.05281Z" fill="#897166"/>
</svg>
