<svg width="285" height="195" viewBox="0 0 285 195" fill="none" xmlns="http://www.w3.org/2000/svg">
<path d="M214.749 16.9609C223.254 14.024 232.696 10.6126 242.863 5.40195C261.409 -3.30558 272.643 -0.360116 278.429 6.30191C284.724 13.5506 286.854 27.4898 281.894 45.2704L281.764 45.7375L281.726 46.221C280.44 62.5442 272.644 78.1418 258.016 83.0599L258.005 83.0637L257.994 83.0675C243.34 88.0712 224.278 88.5845 210.025 85.4418L209.453 85.3159L208.869 85.3252C203.24 85.4146 197.99 83.9598 192.13 82.1024C191.531 81.9126 190.924 81.7175 190.308 81.5198C185.097 79.8476 179.283 77.9816 173.03 77.4075L170.256 86.8171C185.027 94.5426 201.364 97.5937 216.824 100.481C218.464 100.787 220.094 101.092 221.711 101.4C238.888 104.671 254.858 108.356 268.564 118.022L268.606 118.052L268.648 118.08C287.825 131.029 288.926 158.325 276.527 178.318L276.458 178.429L276.395 178.544C273.976 182.941 271.04 185.648 267.862 187.307C264.635 188.992 260.865 189.747 256.609 189.761C247.912 189.79 238.171 186.759 228.929 183.661L228.436 183.496L227.919 183.436C211.736 181.548 202.503 178.486 196.857 174.738C191.488 171.174 188.914 166.691 186.84 160.482C185.996 157.955 185.251 155.144 184.439 152.075C181.156 139.672 176.759 123.061 160.118 103.973L151.677 94.2905C152.974 94.0156 154.226 93.6036 155.376 93.0454L155.532 92.9698L155.682 92.8836C156.868 92.2032 158.325 91.7966 159.833 91.8423L159.834 91.8424C161.325 91.8871 162.943 91.677 164.449 90.9127C166.047 90.1015 167.201 88.8238 167.871 87.3218C169.055 84.6638 168.495 81.8713 168.041 80.2829L168.022 80.2162C167.549 78.5602 167.079 76.9176 166.518 75.5916C165.91 74.1567 164.961 72.5012 163.183 71.2947C161.486 70.1439 159.631 69.8159 158.138 69.6762C156.786 69.5496 155.147 69.5396 153.378 69.5346C148.93 68.7081 144.291 70.2231 140.815 72.5334C137.144 74.9735 133.71 79.0072 133.054 84.1309L132.901 85.3254L133.309 86.4585C135.078 91.3755 139.782 93.5593 143.506 94.3148C145.146 94.6474 146.902 94.7774 148.65 94.6845L151.452 108.269C153.003 115.789 157.026 122.43 160.557 128.259C160.857 128.754 161.153 129.243 161.444 129.726C165.35 136.216 168.499 141.934 169.227 148.38L169.277 148.817L169.401 149.238C172.5 159.704 172.103 166.596 170.154 171.279C168.239 175.88 164.462 179.218 158.846 181.827C153.146 184.476 146.005 186.158 138.043 187.632C135.564 188.091 132.98 188.533 130.357 188.982C124.822 189.929 119.113 190.906 113.845 192.134L113.718 192.164L113.593 192.2C100.155 196.08 86.0679 193.463 78.4632 187.152C74.797 184.11 72.7316 180.329 72.5803 175.916C72.4269 171.442 74.2176 165.569 79.7845 158.412C92.4978 145.608 106.879 129.321 117.867 112.858C118.697 111.703 119.656 110.719 120.909 109.432C121.273 109.059 121.661 108.66 122.079 108.223C123.42 106.823 124.946 105.137 126.256 103.035C126.437 102.984 126.622 102.921 126.809 102.845C127.764 102.458 128.436 101.871 128.898 101.314C129.03 101.274 129.163 101.227 129.297 101.174C130.884 100.546 131.704 99.3596 132.075 98.6485C132.432 97.9667 132.588 97.3268 132.662 96.9889L133.38 93.6895L131.548 92.4437L133.138 89.1819L128.897 90.9503C128.111 90.7014 126.757 90.4662 125.251 91.0773C124.307 91.46 123.639 92.0388 123.178 92.5896C123.024 92.6366 122.867 92.6921 122.709 92.7569C121.661 93.1857 120.955 93.8556 120.495 94.4575C109.296 99.2775 101.951 108.401 95.6786 117.139C94.5502 118.71 93.4588 120.264 92.3869 121.789C87.1843 129.194 82.4404 135.945 76.1555 140.983L76.1002 141.027L76.0462 141.073C72.3641 144.2 69.0924 148.197 66.1077 152.154C64.7697 153.928 63.5399 155.622 62.3388 157.276C60.6943 159.54 59.1029 161.731 57.3606 163.955C51.3304 171.652 46.2341 175.93 40.5332 175.93C29.7936 175.93 26.2679 175.708 23.2704 174.221C21.789 173.487 20.2265 172.318 17.9215 170.142C16.247 168.561 14.3659 166.632 11.9569 164.161C11.0599 163.241 10.0895 162.246 9.02956 161.166C3.29003 153.308 1.47133 147.856 1.08393 142.293C0.774758 137.852 1.32839 133.368 2.08404 127.247C2.36827 124.945 2.68108 122.411 2.98732 119.561C5.69682 111.255 8.3731 107.688 11.4776 105.331C13.1743 104.043 15.1991 102.965 17.8938 101.758C19.24 101.155 20.692 100.546 22.328 99.8604L22.3314 99.859C23.9498 99.1805 25.7251 98.4362 27.6346 97.5938L28.0609 97.4057L28.4452 97.1421C34.5852 92.9295 39.631 89.1135 43.8899 85.8926C45.4496 84.7131 46.9039 83.6132 48.2676 82.603C53.4731 78.7471 57.3018 76.2434 61.2105 74.7887C68.6642 72.0145 77.6167 72.6113 99.134 79.8417L99.7572 80.0512L100.413 80.0923C109.493 80.6623 116.41 80.9042 121.122 80.8935C123.456 80.8882 125.368 80.8212 126.772 80.6795C127.44 80.612 128.209 80.5078 128.916 80.3131C129.245 80.2225 129.839 80.0395 130.464 79.6722C130.91 79.4103 132.578 78.3613 132.986 76.1C133.443 73.5681 131.952 71.9085 131.395 71.3898C130.77 70.8083 130.125 70.4869 129.813 70.3414C129.117 70.0174 128.351 69.7956 127.723 69.6362C126.383 69.2958 124.532 68.9614 122.267 68.6305C117.738 67.9691 111.039 67.2487 102.197 66.5468L39.1153 53.7332C36.0344 52.1796 34.957 50.5967 34.5821 49.4343C34.1646 48.1398 34.2389 46.195 35.617 43.3521C38.452 37.5039 45.6325 30.3345 55.4683 23.4832C65.1436 16.7437 76.7382 10.7616 87.5859 7.03592C98.6999 3.21878 108.01 2.12519 113.661 3.89444L113.881 3.96336L114.107 4.01172C136.976 8.91527 146.702 16.0014 150.901 24.5214C155.343 33.533 154.514 45.6134 152.056 63.1598L161.785 65.3301C165.528 53.221 169.966 44.9068 174.936 38.8635C179.876 32.856 185.53 28.8608 192.062 25.6376C197.963 22.726 204.432 20.505 211.832 17.964C212.789 17.6357 213.76 17.302 214.749 16.9609Z" fill="white"/>
<path d="M127.468 91.5465L125.403 92.4078C125.182 92.3793 124.945 92.3622 124.695 92.3627C124.961 92.1818 125.266 92.0149 125.615 91.8769C126.297 91.6067 126.932 91.5316 127.468 91.5465Z" fill="white"/>
</svg>
